<svg width="42" height="42" viewBox="0 0 42 42" fill="currentColor" xmlns="http://www.w3.org/2000/svg">
<path d="M21 25.375C23.905 25.375 26.2325 23.03 26.2325 20.125L26.25 9.625C26.25 6.72 23.905 4.375 21 4.375C18.095 4.375 15.75 6.72 15.75 9.625V20.125C15.75 23.03 18.095 25.375 21 25.375ZM30.275 20.125C30.275 25.375 25.83 29.05 21 29.05C16.17 29.05 11.725 25.375 11.725 20.125H8.75C8.75 26.11 13.51 31.0275 19.25 31.885V37.625H22.75V31.885C28.49 31.045 33.25 26.11 33.25 20.125H30.275Z" fill="currentColor"/>
</svg>
