<svg width="42" height="42" viewBox="0 0 42 42" fill="currentColor" xmlns="http://www.w3.org/2000/svg">
<path d="M17.482 14.9979L13.982 11.4979L6.71945 4.25293L4.25195 6.72043L9.02945 11.4979H7.75195C6.78945 11.4979 6.00195 12.2854 6.00195 13.2479V30.7479C6.00195 31.7104 6.78945 32.4979 7.75195 32.4979H28.7519C29.1194 32.4979 29.4344 32.3579 29.7144 32.1829L35.2794 37.7479L37.7469 35.2804L22.242 19.7754L17.482 14.9979ZM9.50195 28.9979V14.9979H12.5295L26.5294 28.9979H9.50195ZM27.002 14.9979V19.5654L37.5019 30.0654V12.3729L30.5019 19.3729V13.2479C30.5019 12.2854 29.7144 11.4979 28.7519 11.4979H18.9345L22.4345 14.9979H27.002Z" fill="currentColor"/>
</svg>
